# xmcd
#
# Track frame offsets:
#	182
#	10497
#	24155
#	34127
#	48102
#	57360
#	67435
#	77347
#	82990
#	96170
#	106145
#	120710
#	132645
#	144345
#	157825
#
# Disc length: 2252 seconds
#
# Revision: 0
# Processed by: cddbd v1.5.2PL0 Copyright (c) Steve Scherf et al.
# Submitted via: EasyCDDAExtractor 11.5.3.1
#
DISCID=bc08ca0f
DTITLE=The Valentines - Tne Best Of The Valentines
DYEAR=1991
DGENRE=R&B
TTITLE0=Lily Maebelle
TTITLE1=Why
TTITLE2=I'll Never Let You Go
TTITLE3=Nature's Creation
TTITLE4=If You Love Me
TTITLE5=Hand Me Down Love
TTITLE6=My Story Of Love
TTITLE7=The Joe Smith Theme
TTITLE8=Woo Woo Train
TTITLE9=Sweetheart Of Mine
TTITLE10=K-I-S-S Me
TTITLE11=Falling For You
TTITLE12=I Love You Darling
TTITLE13=Twenty Minutes
TTITLE14=Don't Say Goodnight
EXTD=
EXTT0=
EXTT1=
EXTT2=
EXTT3=
EXTT4=
EXTT5=
EXTT6=
EXTT7=
EXTT8=
EXTT9=
EXTT10=
EXTT11=
EXTT12=
EXTT13=
EXTT14=
PLAYORDER=
